# xmcd
#
# Track frame offsets: 
#        150
#        13795
#        27071
#        40419
#        53752
#        67005
#        70849
#        80209
#        94752
#        101938
#        104672
#        109272
#        121419
#        133792
#        148227
#        162485
#        176747
#        186674
#        192520
#        207817
#        222744
#        237784
#        253030
#        268034
#        280329
#        293946
#        307685
#        321950
#        332668
#        346167
#
# Disc length: 4794 seconds
#
# Revision: 0
# Processed by: cddbd v1.5.2PL0 Copyright (c) Steve Scherf et al.
# Submitted via: ExactAudioCopy v0.95b3
#
DISCID=e612b81e
DTITLE=Elvis Presley  - American Sound - Disc 10 - PC 90  
DYEAR=1900
DGENRE=
TTITLE0=+vocal repair Feb 22nd - string and brass March 18th - backing voc
TTITLE0=als March 25th
TTITLE1=Brass Quad remix
TTITLE2=Strings Quad remix
TTITLE3=Mono remix
TTITLE4=1987 Remix
TTITLE5=If I'm A Fool - Take 1 - false start
TTITLE6=If I'm A Fool - Take 2 - breakdown
TTITLE7=If I'm A Fool - Take 3 - complete
TTITLE8=If I'm A Fool - Take 6 - breakdown
TTITLE9=If I'm A Fool - Take 7 - false start
TTITLE10=If I'm A Fool - Take 8 - breakdown
TTITLE11=If I'm A Fool - Take 9 - master
TTITLE12=If I'm A Fool  +string and backing vocals March 25th
TTITLE13=The Fair's Moving On - Master
TTITLE14=The Fair's Moving On  +string and backing vocals March 25th
TTITLE15=The Fair's Moving On - 1987 remix
TTITLE16=Memory Revival - Slow version 1
TTITLE17=Memory Revival - Slow version 2
TTITLE18=Memory Revival - Fast version
TTITLE19=Who Am I? - Master
TTITLE20=Who Am I?  +string and backing vocals March 25th
TTITLE21=Who Am I? - 1987 remix
TTITLE22=Change Of Habit - master
TTITLE23=Let's Be Friends - master
TTITLE24=Let Us Pray - master
TTITLE25=Let Us Pray - (alternate backing vocals)
TTITLE26=Let Us Pray -  (+replaced vocals September 22nd)
TTITLE27=Have A Happy -  master
TTITLE28=Burning Love
TTITLE29=Burning Love
EXTD=
EXTT0=
EXTT1=
EXTT2=
EXTT3=
EXTT4=
EXTT5=
EXTT6=
EXTT7=
EXTT8=
EXTT9=
EXTT10=
EXTT11=
EXTT12=
EXTT13=
EXTT14=
EXTT15=
EXTT16=
EXTT17=
EXTT18=
EXTT19=
EXTT20=
EXTT21=
EXTT22=
EXTT23=
EXTT24=
EXTT25=
EXTT26=
EXTT27=
EXTT28=
EXTT29=
PLAYORDER=
